<mxfile host="app.diagrams.net" agent="Mozilla/5.0 (X11; Linux x86_64; rv:133.0) Gecko/20100101 Firefox/133.0" version="25.0.3">
  <diagram id="C5RBs43oDa-KdzZeNtuy" name="Page-1">
    <mxGraphModel dx="989" dy="517" grid="1" gridSize="10" guides="1" tooltips="1" connect="1" arrows="1" fold="1" page="1" pageScale="1" pageWidth="827" pageHeight="1169" math="0" shadow="0">
      <root>
        <mxCell id="WIyWlLk6GJQsqaUBKTNV-0" />
        <mxCell id="WIyWlLk6GJQsqaUBKTNV-1" parent="WIyWlLk6GJQsqaUBKTNV-0" />
        <mxCell id="UBzTA4vdgOrGyPvFyf7--19" style="edgeStyle=orthogonalEdgeStyle;rounded=0;orthogonalLoop=1;jettySize=auto;html=1;" edge="1" parent="WIyWlLk6GJQsqaUBKTNV-1" source="UBzTA4vdgOrGyPvFyf7--0">
          <mxGeometry relative="1" as="geometry">
            <mxPoint x="340" y="319.9999999999999" as="targetPoint" />
          </mxGeometry>
        </mxCell>
        <mxCell id="UBzTA4vdgOrGyPvFyf7--0" value="Início" style="rounded=1;whiteSpace=wrap;html=1;arcSize=50;" vertex="1" parent="WIyWlLk6GJQsqaUBKTNV-1">
          <mxGeometry x="280" y="220" width="120" height="60" as="geometry" />
        </mxCell>
        <mxCell id="UBzTA4vdgOrGyPvFyf7--5" style="edgeStyle=orthogonalEdgeStyle;rounded=0;orthogonalLoop=1;jettySize=auto;html=1;entryX=0.5;entryY=0;entryDx=0;entryDy=0;" edge="1" parent="WIyWlLk6GJQsqaUBKTNV-1" source="UBzTA4vdgOrGyPvFyf7--1" target="UBzTA4vdgOrGyPvFyf7--4">
          <mxGeometry relative="1" as="geometry" />
        </mxCell>
        <mxCell id="UBzTA4vdgOrGyPvFyf7--18" style="edgeStyle=orthogonalEdgeStyle;rounded=0;orthogonalLoop=1;jettySize=auto;html=1;exitX=0.5;exitY=0;exitDx=0;exitDy=0;startArrow=classic;startFill=1;endArrow=none;endFill=0;" edge="1" parent="WIyWlLk6GJQsqaUBKTNV-1" source="UBzTA4vdgOrGyPvFyf7--1">
          <mxGeometry relative="1" as="geometry">
            <mxPoint x="539.9999999999998" y="299.9999999999999" as="targetPoint" />
            <Array as="points">
              <mxPoint x="340" y="300" />
            </Array>
          </mxGeometry>
        </mxCell>
        <mxCell id="UBzTA4vdgOrGyPvFyf7--1" value="&lt;div&gt;Lê 1 bit do&lt;/div&gt;&lt;div&gt;buffer de&lt;/div&gt;&lt;div&gt;entrada&lt;br&gt;&lt;/div&gt;" style="shape=parallelogram;perimeter=parallelogramPerimeter;whiteSpace=wrap;html=1;fixedSize=1;" vertex="1" parent="WIyWlLk6GJQsqaUBKTNV-1">
          <mxGeometry x="280" y="320" width="120" height="60" as="geometry" />
        </mxCell>
        <mxCell id="UBzTA4vdgOrGyPvFyf7--7" style="edgeStyle=orthogonalEdgeStyle;rounded=0;orthogonalLoop=1;jettySize=auto;html=1;entryX=0.5;entryY=0;entryDx=0;entryDy=0;exitX=0;exitY=0.5;exitDx=0;exitDy=0;" edge="1" parent="WIyWlLk6GJQsqaUBKTNV-1" source="UBzTA4vdgOrGyPvFyf7--4" target="UBzTA4vdgOrGyPvFyf7--6">
          <mxGeometry relative="1" as="geometry" />
        </mxCell>
        <mxCell id="UBzTA4vdgOrGyPvFyf7--8" value="Bit é 0" style="edgeLabel;html=1;align=center;verticalAlign=middle;resizable=0;points=[];" vertex="1" connectable="0" parent="UBzTA4vdgOrGyPvFyf7--7">
          <mxGeometry x="0.2187" y="-2" relative="1" as="geometry">
            <mxPoint as="offset" />
          </mxGeometry>
        </mxCell>
        <mxCell id="UBzTA4vdgOrGyPvFyf7--10" style="edgeStyle=orthogonalEdgeStyle;rounded=0;orthogonalLoop=1;jettySize=auto;html=1;entryX=0.5;entryY=0;entryDx=0;entryDy=0;exitX=1;exitY=0.5;exitDx=0;exitDy=0;" edge="1" parent="WIyWlLk6GJQsqaUBKTNV-1" source="UBzTA4vdgOrGyPvFyf7--4" target="UBzTA4vdgOrGyPvFyf7--9">
          <mxGeometry relative="1" as="geometry" />
        </mxCell>
        <mxCell id="UBzTA4vdgOrGyPvFyf7--12" value="Bit é 1" style="edgeLabel;html=1;align=center;verticalAlign=middle;resizable=0;points=[];" vertex="1" connectable="0" parent="UBzTA4vdgOrGyPvFyf7--10">
          <mxGeometry x="0.2618" y="-1" relative="1" as="geometry">
            <mxPoint as="offset" />
          </mxGeometry>
        </mxCell>
        <mxCell id="UBzTA4vdgOrGyPvFyf7--4" value="&lt;div&gt;Se o bit&lt;/div&gt;&lt;div&gt;for...&lt;br&gt;&lt;/div&gt;" style="rhombus;whiteSpace=wrap;html=1;" vertex="1" parent="WIyWlLk6GJQsqaUBKTNV-1">
          <mxGeometry x="300" y="440" width="80" height="80" as="geometry" />
        </mxCell>
        <mxCell id="UBzTA4vdgOrGyPvFyf7--13" style="edgeStyle=orthogonalEdgeStyle;rounded=0;orthogonalLoop=1;jettySize=auto;html=1;exitX=0.5;exitY=1;exitDx=0;exitDy=0;endArrow=none;endFill=0;" edge="1" parent="WIyWlLk6GJQsqaUBKTNV-1" source="UBzTA4vdgOrGyPvFyf7--6">
          <mxGeometry relative="1" as="geometry">
            <mxPoint x="540" y="300" as="targetPoint" />
            <Array as="points">
              <mxPoint x="240" y="650" />
              <mxPoint x="540" y="650" />
            </Array>
          </mxGeometry>
        </mxCell>
        <mxCell id="UBzTA4vdgOrGyPvFyf7--6" value="&lt;div&gt;Envia bit 0&lt;br&gt;&lt;/div&gt;&lt;div&gt;codificado&lt;/div&gt;&lt;div&gt;pelo pino&lt;br&gt;&lt;/div&gt;" style="rounded=0;whiteSpace=wrap;html=1;" vertex="1" parent="WIyWlLk6GJQsqaUBKTNV-1">
          <mxGeometry x="180" y="560" width="120" height="60" as="geometry" />
        </mxCell>
        <mxCell id="UBzTA4vdgOrGyPvFyf7--17" style="edgeStyle=orthogonalEdgeStyle;rounded=0;orthogonalLoop=1;jettySize=auto;html=1;endArrow=none;endFill=0;" edge="1" parent="WIyWlLk6GJQsqaUBKTNV-1" source="UBzTA4vdgOrGyPvFyf7--9">
          <mxGeometry relative="1" as="geometry">
            <mxPoint x="440.0000000000002" y="650" as="targetPoint" />
          </mxGeometry>
        </mxCell>
        <mxCell id="UBzTA4vdgOrGyPvFyf7--9" value="&lt;div&gt;Envia bit 1&lt;/div&gt;&lt;div&gt;codificado&lt;/div&gt;&lt;div&gt;pelo pino&lt;br&gt;&lt;/div&gt;" style="rounded=0;whiteSpace=wrap;html=1;" vertex="1" parent="WIyWlLk6GJQsqaUBKTNV-1">
          <mxGeometry x="380" y="560" width="120" height="60" as="geometry" />
        </mxCell>
      </root>
    </mxGraphModel>
  </diagram>
</mxfile>
